<?xml version="1.0" encoding="iso-8859-1"?>
<!-- Uploaded to: SVG Repo, www.svgrepo.com, Generator: SVG Repo Mixer Tools -->
<!DOCTYPE svg PUBLIC "-//W3C//DTD SVG 1.1//EN" "http://www.w3.org/Graphics/SVG/1.1/DTD/svg11.dtd">
<svg fill="#000000" version="1.1" id="Capa_1" xmlns="http://www.w3.org/2000/svg" xmlns:xlink="http://www.w3.org/1999/xlink" 
	 width="800px" height="800px" viewBox="0 0 960.497 960.497"
	 xml:space="preserve">
<g>
	<path d="M244.531,280.621c-21.5-0.5-61.9,11.2-76.3,17.6c-20.3,9-39.3,23.5-55.7,41.3c-38,41.3-62.2,100.6-57.2,152
		c1.4,14.4,6.7,25,14.8,36.6c3.2,4.5,4.3,3.701,2.8-1.6c-8.5-29.301,5.3-60.3,22.3-83.9c55.7-77.2,158.1-51.3,233.6-24.8
		c-20.3,32.899-30.2,67.399-31.7,101c-0.199,4.1-0.699,8.1-0.6,12.1c0.1,7.699,1,15.199,2.1,22.699c0.7,5.5,1.601,11,2.9,16.4
		c1.5,6.4,3.3,12.5,5.5,18.6c2.3,6.301,4.9,12.301,7.9,18.201c2.5,5,4.899,10,7.899,14.699c4.3,6.801,9.3,12.9,14.601,19
		c2.899,3.301,5.399,6.9,8.6,10.1c9.1,8.9,19,17,30.3,23.801l469,277.199c30.9,15.6,72.601,8.801,92.2-10.799
		c19.6-19.602,35.5-54.5,9-90.301l-277.3-469.4c-6.7-11.2-14.8-21.1-23.601-30c-3.199-3.2-6.8-5.8-10.199-8.8
		c-5.9-5.1-11.801-9.9-18.301-14.1c-4.899-3.2-10-5.8-15.3-8.4c-5.3-2.7-10.8-5-16.5-7.2c-6.7-2.5-13.3-4.7-20.3-6.3
		c-3.9-0.9-7.9-1.5-12-2.1c-42.9-7.3-89.901,0.7-134.3,26.3c0.899-0.5-18.4-60.3-19.8-65.8c-6-24.5-10.9-50-9.4-75.3
		c3-51.1,39.8-93.4,86.4-112.4c16.5-6.8,33-9,50.2-4c5.301,1.5,6.2,0.4,1.601-2.8c-91.601-63.7-216.201,44.2-239.801,130
		c-2.5,9.1-7.5,25.8-7.8,44.5c0,0-63.2-129.8,0.8-239.4c2.8-4.8,1.2-6.5-3.5-3.7c-21.7,12.7-77.1,51.2-91.6,119.8
		c-5.5,26.1-7.1,44.3-7,57.8c-13.6-0.1-31.8,1.5-57.8,7c-68.5,14.6-107,70-119.7,91.7c-2.8,4.8-1,6.3,3.7,3.5
		C114.631,217.421,244.431,280.521,244.531,280.621z M435.831,438.721c30-30,65.8-46.5,100.8-46.5c28.4,0,52.5,11.301,68.9,30.4
		c-13,5.1-26.3,13.5-43.5,28.7c-38.8,35.299-46,77.799-16.8,53.799c21.8-18.6,61.3-32.7,88-39.5l37.6,63.701
		c-13.2,7.299-29,19.1-41.399,38.1c-26.2,40-16.2,73.699,6.3,46.199c13-16,42.7-26.699,65.5-33l50.8,85.9
		c-9.9,6-20.8,14.5-29.8,28.199c-21.3,32.5-13.2,59.9,5.1,37.5c9.7-11.898,30.8-20.199,48.5-25.5l103.9,175.801l-448.701-265.1
		c-22.9-13.701-37.4-36.701-40.9-64.9C385.331,514.021,402.031,472.521,435.831,438.721z"/>
</g>
</svg>